<svg preserveAspectRatio="none" overflow="visible" style="display: block;" width="32.63" height="32.63" viewBox="0 0 32.63 32.63" fill="none" xmlns="http://www.w3.org/2000/svg">
<g id="Youtube">
<path id="Vector" d="M21.63 0H11C4.92487 0 0 4.92487 0 11V21.63C0 27.7051 4.92487 32.63 11 32.63H21.63C27.7051 32.63 32.63 27.7051 32.63 21.63V11C32.63 4.92487 27.7051 0 21.63 0Z" fill="#DF1F15"/>
<path id="Vector_2" d="M24.85 14.09C24.85 12.02 23.17 10.34 21.1 10.34H11.52C9.45002 10.34 7.77002 12.02 7.77002 14.09V18.55C7.77002 20.62 9.45002 22.3 11.52 22.3H21.1C23.17 22.3 24.85 20.62 24.85 18.55V14.09ZM19.22 16.65L14.92 18.78C14.75 18.87 14.1801 18.75 14.1801 18.56V14.2C14.1801 14.01 14.7601 13.88 14.9301 13.98L19.04 16.22C19.21 16.32 19.39 16.57 19.22 16.66" fill="white"/>
</g>
</svg>
