<svg preserveAspectRatio="none" overflow="visible" style="display: block;" width="32.63" height="32.63" viewBox="0 0 32.63 32.63" fill="none" xmlns="http://www.w3.org/2000/svg">
<g id="Slideshare">
<path id="Vector" d="M21.63 0H11C4.92487 0 0 4.92487 0 11V21.63C0 27.7051 4.92487 32.63 11 32.63H21.63C27.7051 32.63 32.63 27.7051 32.63 21.63V11C32.63 4.92487 27.7051 0 21.63 0Z" fill="#0077B5"/>
<path id="Vector_2" d="M14.12 14C13.03 14 12.14 14.82 12.14 15.85C12.14 16.88 13.03 17.7 14.12 17.7C15.21 17.7 16.1 16.87 16.1 15.85C16.1 14.83 15.21 14 14.12 14ZM18.72 14C17.63 14 16.7401 14.82 16.7401 15.85C16.7401 16.88 17.63 17.7 18.72 17.7C19.81 17.7 20.7 16.87 20.7 15.85C20.7 14.82 19.82 14 18.72 14ZM23.7401 16.89L23.5501 17.03V10.67C23.5501 9.78998 22.89 9.07996 22.08 9.07996H10.57C9.76001 9.07996 9.10004 9.78998 9.10004 10.67V17.03C9.04004 16.99 8.96003 16.94 8.90003 16.89C8.42003 16.55 8.10002 17.02 8.39002 17.46C8.98002 18.18 10.0901 19.07 11.8001 19.77C10.0001 25.92 16.21 26.9 16.11 23.75C16.11 23.73 16.11 21.94 16.11 20.65C16.27 20.69 16.4101 20.72 16.5501 20.75C16.5501 22.02 16.5501 23.73 16.5501 23.75C16.4501 26.9 22.66 25.92 20.86 19.77C22.56 19.07 23.68 18.19 24.27 17.46C24.56 17.02 24.24 16.55 23.75 16.89H23.7401ZM22.76 17.5C20.55 18.7 18.65 18.5 17.61 18.45C16.85 18.42 16.56 18.74 16.53 19.25C16.2 19 15.93 18.75 15.88 18.7C15.72 18.53 15.44 18.44 15.01 18.45C13.99 18.49 12.13 18.69 9.96002 17.55V11.38C9.96002 10.26 10.25 9.90997 11.26 9.90997H21.45C22.42 9.90997 22.76 10.32 22.76 11.38V17.49V17.5Z" fill="white"/>
</g>
</svg>
